<?xml version="1.0" encoding="utf-8"?>
<!-- Generator: Adobe Illustrator 16.0.0, SVG Export Plug-In . SVG Version: 6.00 Build 0)  -->
<!DOCTYPE svg PUBLIC "-//W3C//DTD SVG 1.1//EN" "http://www.w3.org/Graphics/SVG/1.1/DTD/svg11.dtd">
<svg version="1.1" id="logoipsum" xmlns="http://www.w3.org/2000/svg" xmlns:xlink="http://www.w3.org/1999/xlink" x="0px" y="0px"
	 width="552px" height="333px" viewBox="202.5 83.5 552 333" enable-background="new 202.5 83.5 552 333" xml:space="preserve">
<title>logoipsum-4</title>
<path fill="#FFF5EE" d="M209.463,305.865h16.2v79.434h-16.2V305.865z"/>
<path fill="#FFF5EE" d="M235.059,358.083c-0.03-15.926,12.856-28.859,28.782-28.89c15.925-0.029,28.859,12.856,28.89,28.781
	c0.03,15.926-12.856,28.86-28.782,28.89c-0.018,0-0.036,0-0.054,0c-15.745,0.18-28.655-12.438-28.835-28.184
	C235.057,358.481,235.057,358.282,235.059,358.083z M276.422,358.083c-0.179-6.917-5.931-12.379-12.848-12.199
	c-6.917,0.179-12.378,5.931-12.2,12.848c0.176,6.788,5.729,12.201,12.52,12.203c6.737,0.188,12.352-5.12,12.541-11.857
	C276.444,358.746,276.44,358.414,276.422,358.083z"/>
<path fill="#FFF5EE" d="M357.854,330.867v51.731c0,18.306-14.31,26.027-28.782,26.027c-10.375,0.772-20.312-4.312-25.758-13.176
	l13.932-8.046c2.262,4.561,7.077,7.278,12.15,6.858c5.883,0.98,11.448-2.994,12.428-8.878c0.153-0.92,0.187-1.856,0.1-2.786v-5.021
	c-3.863,4.752-9.759,7.379-15.876,7.073c-15.27-0.009-27.64-12.396-27.63-27.665c0.01-15.256,12.375-27.62,27.63-27.63
	c6.112-0.279,11.997,2.343,15.876,7.074v-5.4L357.854,330.867z M341.924,357.003c0.298-7.271-5.354-13.406-12.625-13.705
	c-7.271-0.298-13.406,5.354-13.705,12.625s5.354,13.406,12.625,13.705c0.176,0.007,0.353,0.011,0.529,0.011
	c6.783,0.48,12.67-4.629,13.15-11.412C341.927,357.819,341.936,357.411,341.924,357.003L341.924,357.003z"/>
<path fill="#FFF5EE" d="M367.195,358.083c-0.03-15.926,12.856-28.859,28.782-28.89c15.925-0.029,28.86,12.856,28.889,28.781
	c0.03,15.926-12.855,28.86-28.781,28.89c-0.018,0-0.036,0-0.054,0c-15.746,0.18-28.656-12.438-28.835-28.185
	C367.194,358.481,367.193,358.282,367.195,358.083z M408.559,358.083c-0.179-6.917-5.931-12.379-12.847-12.199
	c-6.917,0.179-12.379,5.931-12.2,12.848c0.175,6.788,5.728,12.201,12.52,12.203c6.738,0.129,12.306-5.229,12.435-11.968
	c0.006-0.295,0.001-0.59-0.015-0.884H408.559z"/>
<path fill="#FFF5EE" d="M432.373,316.287c0-5.428,4.399-9.827,9.827-9.827s9.828,4.399,9.828,9.827c0,5.429-4.4,9.828-9.828,9.828
	l0,0C436.785,326.086,432.402,321.703,432.373,316.287z M434.047,330.867h16.199v54.432h-16.199V330.867z"/>
<path fill="#FFF5EE" d="M520.878,358.083c0.822,15.068-10.727,27.95-25.794,28.772c-0.061,0.003-0.12,0.006-0.18,0.009
	c-6.117,0.294-12.05-2.139-16.2-6.642v27h-16.2v-76.355h16.2v5.13c4.15-4.503,10.083-6.936,16.2-6.642
	c15.072,0.725,26.704,13.531,25.979,28.604C520.882,358.001,520.88,358.042,520.878,358.083z M504.678,358.083
	c-0.182-7.155-6.129-12.809-13.284-12.628c-7.155,0.182-12.809,6.129-12.627,13.284c0.175,6.9,5.727,12.453,12.627,12.628
	c6.846,0.435,12.748-4.762,13.183-11.607c0.036-0.559,0.033-1.118-0.007-1.677H504.678z"/>
<path fill="#FFF5EE" d="M571.313,368.991c0,12.527-10.8,17.873-22.68,17.873c-9.709,0.86-18.965-4.271-23.381-12.959l14.147-8.046
	c1.184,4.047,5.027,6.722,9.233,6.426c3.942,0,5.887-1.242,5.887-3.402c0-5.994-27-2.808-27-21.6c0-11.88,10.044-17.874,21.6-17.874
	c8.684-0.264,16.828,4.201,21.275,11.664l-14.201,7.452c-1.282-2.914-4.161-4.798-7.344-4.807c-2.809,0-4.536,1.08-4.536,3.078
	C544.529,353.007,571.313,348.85,571.313,368.991z"/>
<path fill="#FFF5EE" d="M630.928,330.867v54.432h-16.199v-5.076c-3.823,4.575-9.604,7.044-15.552,6.642
	c-10.8,0-20.358-7.829-20.358-22.571v-33.426h16.2v31.05c-0.53,4.922,3.03,9.342,7.953,9.872c0.604,0.064,1.215,0.068,1.82,0.01
	c5.94,0,10.099-3.456,10.099-11.178v-29.754H630.928z"/>
<path fill="#FFF5EE" d="M724.563,351.927v33.372h-16.199v-31.968c0-5.399-2.646-8.964-7.83-8.964s-8.532,3.834-8.532,10.26v30.672
	h-16.199v-31.968c0-5.399-2.592-8.964-7.83-8.964s-8.478,3.834-8.478,10.26v30.672h-16.2v-54.432h16.2v5.022
	c3.439-4.507,8.927-6.966,14.579-6.534c5.684-0.276,11.096,2.45,14.256,7.182c3.674-4.943,9.627-7.655,15.769-7.182
	C716.409,329.355,724.563,338.319,724.563,351.927z"/>
<circle fill="#FFF5EE" cx="738.387" cy="318.447" r="12.096"/>
<circle fill="#FFF5EE" cx="392.791" cy="208.019" r="56.645"/>
<circle fill="#FFF5EE" cx="519.42" cy="208.019" r="56.645"/>
<rect x="209.571" y="151.374" fill="#FFF5EE" width="113.237" height="113.237"/>
</svg>
